<svg id="Capa_1" enable-background="new 0 0 512 512" height="512" viewBox="0 0 512 512" width="512" xmlns="http://www.w3.org/2000/svg"><g><g><path d="m456.969 407.139c27.744-39.712 44.031-88.02 44.031-140.139 0-135.31-109.69-245-245-245s-245 109.69-245 245c0 52.119 16.287 100.427 44.031 140.139z" fill="#fd7e14"/></g><g><circle cx="256" cy="222" fill="#e0457b" r="180"/></g><g><path d="m353.608 162.915h-192.948c0 38.808-38.808 73.896-38.808 132.033s30 95 30 95h210.565s30-36.863 30-95-38.809-93.225-38.809-132.033z" fill="#43a047"/></g><g><path d="m429.558 352.438c-12.509-11.044-46.925-20.971-76.666-27.889h-193.784c-29.741 6.917-64.158 16.844-76.666 27.889-8.351 7.373-18.17 29.339-27.391 54.702 44.284 63.387 117.758 104.86 200.949 104.86s156.665-41.473 200.949-104.861c-9.22-25.363-19.04-47.328-27.391-54.701z" fill="#e9efff"/></g><g><path d="m176.349 320.739c-5.411 1.137-11.228 2.411-17.241 3.809l6.495 6.662c14.837 15.218 46.269 40.747 90.078 40.747 43.824 0 75.571-25.488 90.595-40.681l6.646-6.721c-6.024-1.401-11.851-2.677-17.271-3.816z" fill="#d3dcfb"/></g><g><path d="m303.386 314.575v-93.841h-94.772v93.841c-.924.153-14.345 2.398-32.27 6.164 13.224 13.564 41.042 36.218 79.338 36.218 38.396 0 66.564-22.712 79.929-36.228-17.903-3.76-31.301-6.001-32.225-6.154z" fill="#6610f2"/></g><g><path d="m208.614 220.734v93.841c94.723 0 94.772-53.4 94.772-53.4v-40.44h-94.772z" fill="#f7ea48"/></g><g><path d="m144.849 328.024c-25.754 6.589-51.864 15.104-62.407 24.413-8.351 7.373-18.17 29.339-27.391 54.702 44.284 63.388 117.758 104.861 200.949 104.861-102.521-58.7-110.931-180.502-111.151-183.976z" fill="#d3dcfb"/></g><g><path d="m339.003 36.423c-19.784-22.322-47.62-36.423-81.869-36.423s-48.985 5.638-62.772 12-14.708 34.073-14.708 34.073c-17.176 18.715-27.663 43.666-27.663 71.07v30.076h210.286v-30.076c0-23.009-3.49-58.398-23.274-80.72z" fill="#43a047"/></g><g><path d="m151.991 117.143v30.076h42.846v-62.315c-10.759-7.032-15.794-24.117-15.183-38.831-17.176 18.714-27.663 43.666-27.663 71.07z" fill="#43a047"/></g><g><path d="m331.058 159.567s10.385-25.285 28.897-19.415-.448 60.664-36.573 64.116z" fill="#f7ea48"/></g><g><path d="m180.942 159.567s-10.385-25.285-28.897-19.415.448 60.664 36.573 64.116z" fill="#f7ea48"/></g><g><path d="m194.837 84.904c-10.322 3.439-17.93 12.279-20.432 22.867-2.552 10.801-6.002 27.519-6.002 38.984 0 64.505 39.219 140.155 87.597 140.155s87.597-75.65 87.597-140.155c0-1.674-.033-2.084-.085-3.733-81.411-.002-112.185-70.275-148.675-58.118z" fill="#f7ea48"/></g><g><path d="m276 282.564c-38.741-16.953-67.597-80.479-67.597-135.809 0-21.971 4.564-41.826 12.476-58.475-8.87-4.459-17.292-6.291-26.042-3.376-10.322 3.439-17.93 12.279-20.432 22.867-2.552 10.801-6.002 27.519-6.002 38.984 0 64.505 39.219 140.155 87.597 140.155 6.881 0 13.576-1.535 20-4.346z" fill="#f7ea48"/></g><g><path d="m373.596 464.948h-60c-11.046 0-20-8.954-20-20v-130c0-11.046 8.954-20 20-20h60c11.046 0 20 8.954 20 20v130c0 11.046-8.955 20-20 20z" fill="#5f5f9b"/></g><g><path d="m313.596 444.948v-130c0-11.046 8.954-20 20-20h-20c-11.046 0-20 8.954-20 20v130c0 11.046 8.954 20 20 20h20c-11.046 0-20-8.954-20-20z" fill="#47477f"/></g><g><circle cx="343.596" cy="324.948" fill="#47477f" r="10"/></g><g><circle cx="363.596" cy="324.948" fill="#47477f" r="5"/></g><g><g><path d="m371.74 291.71c-4.073-2.429-7.478-5.833-9.906-9.906-.682-1.144-1.906-1.856-3.238-1.856-1.332 0-2.556.711-3.238 1.856-2.428 4.073-5.833 7.478-9.906 9.906-1.144.682-1.856 1.906-1.856 3.238 0 1.332.711 2.556 1.856 3.238 4.073 2.428 7.478 5.833 9.906 9.906.682 1.144 1.906 1.856 3.238 1.856 1.332 0 2.556-.711 3.238-1.856 2.428-4.073 5.833-7.478 9.906-9.906 1.144-.682 1.856-1.906 1.856-3.238 0-1.332-.712-2.556-1.856-3.238z" fill="#fff"/></g></g><g><g><path d="m242.013 192.447 8.436-13.441c2.569-4.093 8.533-4.093 11.102 0l8.436 13.441c2.739 4.365-.398 10.038-5.551 10.038h-16.871c-5.154-.001-8.291-5.674-5.552-10.038z" fill="#f7ea48"/></g></g><g><g><path d="m235.384 240.87h41.233c4.111-3.622 7.258-8.309 9.01-13.631 1.584-4.811-2.069-9.754-7.134-9.754h-44.985c-5.065 0-8.718 4.943-7.134 9.754 1.752 5.322 4.899 10.009 9.01 13.631z" fill="#2d2d59"/></g><g><path d="m276.616 240.87c-5.493 4.849-12.714 7.798-20.616 7.798s-15.124-2.948-20.616-7.798c5.5-4.849 12.714-7.798 20.616-7.798s15.116 2.949 20.616 7.798z" fill="#ff4155"/></g></g><g><path d="m310.999 162.085c.043-3.495-1.371-7.004-4.242-9.539-4.675-4.128-11.84-4.128-16.515 0-2.871 2.535-4.284 6.044-4.242 9.539.055 4.538 5.629 6.716 8.838 3.507 2.022-2.022 5.3-2.022 7.322 0 3.21 3.21 8.784 1.032 8.839-3.507z" fill="#2d2d59"/></g><g><path d="m201.001 162.085c-.043-3.495 1.371-7.004 4.242-9.539 4.675-4.128 11.84-4.128 16.515 0 2.871 2.535 4.284 6.044 4.242 9.539-.055 4.538-5.629 6.716-8.838 3.507-2.022-2.022-5.3-2.022-7.322 0-3.21 3.21-8.784 1.032-8.839-3.507z" fill="#2d2d59"/></g><g><path d="m223.5 138.968h-20c-4.142 0-7.5-3.358-7.5-7.5 0-4.142 3.358-7.5 7.5-7.5h20c4.142 0 7.5 3.358 7.5 7.5 0 4.142-3.358 7.5-7.5 7.5z" fill="#9b4dee"/></g><g><path d="m308.5 138.968h-20c-4.142 0-7.5-3.358-7.5-7.5 0-4.142 3.358-7.5 7.5-7.5h20c4.142 0 7.5 3.358 7.5 7.5 0 4.142-3.358 7.5-7.5 7.5z" fill="#9b4dee"/></g><g><path d="m120.812 471.33c-.075-.212-8.769-24.824 4.705-53.619 2.512-5.369-4.447-10.154-8.544-5.871-8.577 8.966-17.032 22.169-20.587 41.004 7.736 6.653 15.895 12.828 24.426 18.486z" fill="#bec8f7"/></g><g><g><path d="m365.262 385.948c0 6.904 5.596 12.5 12.5 12.5h-8.333c-6.904 0-12.5 5.596-12.5 12.5 0 6.904 5.596 12.5 12.5 12.5h8.333c-6.904 0-12.5 5.596-12.5 12.5 0 6.904 5.596 12.5 12.5 12.5h8.333c-6.904 0-12.5 5.596-12.5 12.5 0 6.904 5.596 12.5 12.5 12.5h30.833c27.614 0 50-22.386 50-50 0-27.614-22.386-50-50-50h-39.167c-6.902 0-12.499 5.597-12.499 12.5z" fill="#6610f2"/></g><g><g><path d="m375.282 454.698c-1.066 1.84-1.686 3.971-1.686 6.25 0 6.904 5.596 12.5 12.5 12.5h8.083c3.452 0 6.25-2.798 6.25-6.25 0-3.452-2.798-6.25-6.25-6.25h-8.083c-4.625 0-8.652-2.517-10.814-6.25z" fill="#f7ea48"/></g><g><path d="m366.948 429.698c-1.066 1.84-1.686 3.971-1.686 6.25 0 6.904 5.596 12.5 12.5 12.5h16.417c3.452 0 6.25-2.798 6.25-6.25 0-3.452-2.798-6.25-6.25-6.25h-16.417c-4.624 0-8.652-2.517-10.814-6.25z" fill="#f7ea48"/></g><g><path d="m366.948 379.698c-1.066 1.84-1.686 3.971-1.686 6.25 0 6.904 5.596 12.5 12.5 12.5h16.417c3.452 0 6.25-2.798 6.25-6.25 0-3.452-2.798-6.25-6.25-6.25h-16.417c-4.624 0-8.652-2.517-10.814-6.25z" fill="#f7ea48"/></g><g><path d="m358.615 404.698c-1.066 1.84-1.686 3.971-1.686 6.25 0 6.904 5.596 12.5 12.5 12.5h24.75c3.452 0 6.25-2.798 6.25-6.25 0-3.452-2.798-6.25-6.25-6.25h-24.75c-4.624 0-8.652-2.517-10.814-6.25z" fill="#f7ea48"/></g></g></g></g></svg>